<svg xmlns="http://www.w3.org/2000/svg" width="277" height="92" viewBox="0 0 980.6 327.6"><style>.a{stroke-width:2;}</style><g transform="translate(85.433783 -337.65655)matrix(0.76611695 0 0 0.76611695 -37.736053 77.02654)"><path d="m-62.3 767.8c13-19.9 25.4-40.2 39-59.8 75.3-108.3 158.8-210.6 247.4-308.2 12.9-14.2 26.2-27.9 39.3-41.8 10.3-5.3 22.1-23.6 30.9-16 8.8 7.6-6.1 22.5-11 33-4.8 10.3-70.3 127.8-71.8 130.5-40.2 73.6-30.9 56.3-64.1 123.7-2.8 9.8-9.9 19.2-8.4 29.3 0.6 4.2 8.9 1.1 12.6-0.9 6.7-3.7 11.2-10.4 17.1-15.3 17.7-14.6 35.8-28.7 53.6-43.1 75.3-60.7 34.9-29.4 102.8-80.6 11.5-5.5 46.2-39.5 56.4-9.2 2.8 8.3 0.8 17.4 1.1 26.1 0.3 9.5-3.2 19.8 0.5 28.5 9.3 21.9 35.1 16.5 52.2 17.5 87.6-23.9 21.5-4.1 116.1-38 20-7.2 40.2-13.8 60.3-20.6 0 0-13.5 10.5-13.5 10.5l0 0c-20 6.8-40.1 13.3-60 20.5-97.8 35.2-27.1 13.9-118.9 39.1-11.8-0.8-24.3 1.5-35.5-2.5-33.9-12.3-13.4-45.5-20.6-70-1.3-4.6-4.9-9.1-9.3-10.9-3.9-1.5-8.2 1.6-12.4 2.4-62.7 46.5-36.7 26.2-103.6 80.9-17.2 14.1-33.6 29.1-51.5 42.3-16.8 12.5-33.5 25.7-52.4 34.9-4 2-12.7 1.3-13-3.1-0.7-10.8 7.2-20.4 10.7-30.7 39.2-76.3 19.8-39.5 65.8-124.5 23.4-43.3 46.4-84.3 67.9-128.4 29.9-61.3 4.9-14.4 14.4-32.2-13.8 14.2-28 28.1-41.5 42.6-89.5 96.2-173.2 198.2-246.3 307.4-12.8 19.1-24.2 39-36.3 58.5 0 0-17.9 8-17.9 8z" class="a"/><path d="m694.5 487.4c-24.9 37-41.5 60.4-64.2 99.3-8.6 14.7-17.3 29.3-24.2 44.9-4.3 9.7-10 19.9-9.3 30.6 0.3 4.9 7 9 11.9 8.7 11.4-0.7 21.5-7.7 32.3-11.5 47.2-22.9 88.7-55.5 134.5-80.9 15.5-8.6 30.3-19.8 47.6-23.6 4.9-1.1 9.8 5.9 10.3 10.8 1 9-4.2 17.5-6.4 26.3-0.8 2.8-15.1 42.5-9.4 49.3 5.3 6.3 16 5.7 24.1 4.8 17.3-1.8 34-7.4 50.6-12.6 29.8-9.3 116-42.8 144-53.4 35.5-8.2 70.6-24.5 107-8.1 25.9 11.7 35.2 40.7 49.1 61.9 7.8 11.8 16.8 22.7 25.3 34.1 0 0-16.4 9.7-16.4 9.7l0 0c-8.5-11.4-17.6-22.4-25.5-34.2-13.5-20.2-23.5-49.1-48-60.6-35.7-16.7-68.7-1.1-103.9 6.9-22.1 8.4-122.3 47.2-145.9 54.7-4.2 1.3-63.7 25.2-79 6.2-5.5-6.8 8.5-46.4 9.5-49.7 0.3-1.2 14.7-30.4-0.9-33.7-5.3-1.1-10.7 2.4-15.4 4.9-16.2 8.7-31.5 19.1-47.2 28.7-88.9 54.3-43.6 28-119.4 70.7-11.7 3.6-22.8 11-35 10.8-5.5-0.1-11.6-6.1-11.7-11.5-0.3-11.1 6-21.5 10.7-31.6 7.3-15.7 16.3-30.4 25-45.3 20.8-35.6 39.8-64.1 62.1-98.4 0 0 17.9-7.8 17.9-7.8z" class="a"/></g></svg>
